<?xml version="1.0" standalone="no"?>
<!DOCTYPE svg PUBLIC "-//W3C//DTD SVG 20010904//EN"
 "http://www.w3.org/TR/2001/REC-SVG-20010904/DTD/svg10.dtd">
<svg version="1.0" xmlns="http://www.w3.org/2000/svg"
 width="225.000000pt" height="225.000000pt" viewBox="0 0 225.000000 225.000000"
 preserveAspectRatio="xMidYMid meet">

<g transform="translate(0.000000,225.000000) scale(0.100000,-0.100000)"
fill="#000000" stroke="none">
<path d="M260 1165 l0 -245 60 0 60 0 0 95 0 95 60 0 60 0 0 -95 0 -95 60 0
60 0 0 245 0 245 -60 0 -60 0 0 -90 0 -90 -60 0 -60 0 0 90 0 90 -60 0 -60 0
0 -245z"/>
<path d="M696 1384 c-20 -20 -20 -38 0 -59 19 -18 55 -16 62 3 3 11 0 12 -14
4 -27 -14 -44 -4 -44 25 0 22 3 25 30 21 32 -5 41 6 14 16 -24 9 -31 8 -48
-10z"/>
<path d="M900 1355 c0 -25 5 -45 10 -45 6 0 10 20 10 45 0 25 -4 45 -10 45 -5
0 -10 -20 -10 -45z"/>
<path d="M1061 1353 c2 -45 2 -46 8 -13 l6 35 20 -32 c11 -18 23 -33 27 -33 4
0 7 21 7 48 -2 44 -2 45 -8 12 l-6 -35 -20 33 c-11 17 -23 32 -27 32 -4 0 -7
-21 -7 -47z"/>
<path d="M1270 1355 c0 -43 1 -45 30 -45 17 0 30 5 30 10 0 6 -9 10 -20 10
-27 0 -25 18 3 23 l22 4 -22 2 c-25 1 -32 21 -9 21 8 0 18 5 21 10 4 6 -7 10
-24 10 -30 0 -31 -1 -31 -45z"/>
<path d="M1402 1223 c2 -150 6 -184 22 -216 25 -51 91 -89 147 -85 39 3 42 5
60 51 l19 47 -24 0 c-52 0 -85 20 -97 59 -6 20 -9 48 -7 61 3 22 9 25 46 28
l42 3 0 50 0 49 -45 0 -45 0 0 65 0 65 -61 0 -61 0 4 -177z"/>
<path d="M738 1270 c-140 -74 -135 -276 8 -346 46 -22 63 -26 106 -21 193 23
240 279 67 367 -50 26 -132 26 -181 0z m136 -111 c52 -41 23 -129 -44 -129
-67 0 -96 88 -44 129 15 12 34 21 44 21 10 0 29 -9 44 -21z"/>
<path d="M1745 1275 c-54 -19 -75 -47 -75 -101 0 -56 22 -78 97 -99 80 -21
107 -37 111 -62 7 -48 -73 -54 -104 -8 -14 21 -24 25 -65 25 -45 0 -49 -2 -49
-24 0 -73 107 -125 215 -105 66 12 105 51 112 110 8 71 -35 113 -144 139 -61
14 -82 32 -63 55 19 23 56 18 78 -10 17 -21 28 -25 71 -25 56 0 59 5 35 51
-30 59 -133 84 -219 54z"/>
<path d="M1040 1168 c1 -136 10 -183 45 -217 23 -24 32 -26 100 -25 69 1 74 0
64 -17 -15 -30 -46 -41 -130 -46 l-79 -6 0 -55 0 -54 93 4 c111 5 171 29 213
84 l29 37 3 204 3 203 -60 0 -60 0 -3 -117 -3 -118 -40 0 -40 0 -3 118 -3 117
-64 0 -65 0 0 -112z"/>
</g>
</svg>
