<svg version="1.1" id="Layer_1" xmlns="http://www.w3.org/2000/svg" xmlns:xlink="http://www.w3.org/1999/xlink" x="0px" y="0px"
	 width="100%" viewBox="0 0 270 160" enable-background="new 0 0 270 160" xml:space="preserve">
<path fill="#070606" opacity="1.000000" stroke="none" 
	d="
M164.000000,161.000000 
	C109.333336,161.000000 55.166672,161.000000 1.000007,161.000000 
	C1.000005,107.666672 1.000005,54.333347 1.000002,1.000015 
	C90.999992,1.000010 180.999985,1.000010 271.000000,1.000005 
	C271.000000,54.333317 271.000000,107.666634 271.000000,160.999969 
	C235.500000,161.000000 200.000000,161.000000 164.000000,161.000000 
M151.042374,110.022675 
	C151.206360,110.172050 151.370331,110.321419 151.363327,111.162956 
	C149.202606,116.199692 144.596024,116.659813 140.085876,116.916664 
	C135.675781,117.167816 131.240189,116.971313 126.661751,116.971313 
	C126.661751,122.032715 126.661751,126.284447 126.661751,131.817657 
	C135.093765,130.871033 143.298233,130.771439 151.066010,128.879196 
	C161.858856,126.250023 166.941299,118.631241 166.974869,107.578598 
	C167.006241,97.251556 166.982285,86.924347 166.982620,76.597206 
	C166.982727,73.831673 166.982651,71.066132 166.982651,68.180603 
	C161.846878,68.180603 157.411438,68.180603 152.359344,68.180603 
	C152.359344,75.690605 152.170624,82.983887 152.431137,90.261086 
	C152.583923,94.528893 151.099045,96.351784 146.756454,96.334229 
	C142.384888,96.316559 141.551315,94.053505 141.651398,90.276031 
	C141.844193,82.998932 141.707611,75.713112 141.707611,68.260910 
	C136.337326,68.260910 131.595291,68.260910 127.186760,68.260910 
	C127.186760,79.137543 126.729607,89.764366 127.378616,100.323196 
	C127.705635,105.643532 131.658539,109.566536 137.248199,110.107063 
	C141.631210,110.530922 146.127899,109.779297 151.042374,110.022675 
M47.190563,99.501228 
	C47.190563,95.733673 47.190563,91.966125 47.190563,88.116989 
	C52.183537,88.116989 56.442616,88.116989 61.429234,88.116989 
	C61.429234,95.753983 61.429234,103.126999 61.429234,110.398254 
	C66.584557,110.398254 71.000145,110.398254 75.508194,110.398254 
	C75.508194,90.811066 75.508194,71.596848 75.508194,52.245987 
	C70.716484,52.245987 66.295013,52.245987 61.275864,52.245987 
	C61.275864,59.223129 61.275864,65.957687 61.275864,72.875458 
	C56.316849,72.875458 51.967133,72.875458 47.025341,72.875458 
	C47.025341,65.747971 47.025341,59.023823 47.025341,52.362572 
	C42.031815,52.362572 37.642166,52.362572 33.365692,52.362572 
	C33.365692,71.952477 33.365692,91.166603 33.365692,110.350716 
	C38.126919,110.350716 42.503864,110.350716 47.190712,110.350716 
	C47.190712,106.786705 47.190712,103.635574 47.190563,99.501228 
M111.888245,68.394188 
	C102.292206,64.120834 93.289406,65.068123 85.399475,72.080139 
	C78.117943,78.551453 76.067696,86.887405 78.626152,96.167938 
	C81.442421,106.383667 90.722519,113.091080 101.372704,113.042305 
	C112.227020,112.992599 121.275742,106.017029 124.133263,95.496429 
	C126.988258,84.985130 122.673935,75.044380 111.888245,68.394188 
M210.565979,112.160873 
	C216.304352,112.413719 222.096039,113.254997 227.764999,112.741493 
	C232.694275,112.294998 236.762817,109.333038 238.874680,104.471779 
	C242.087982,97.075172 239.412018,89.392899 231.880096,86.106621 
	C227.358612,84.133827 222.282242,83.465607 217.631317,81.737305 
	C216.178741,81.197525 215.301208,79.110291 214.160446,77.731422 
	C215.815552,76.862289 217.542847,75.191261 219.107025,75.332085 
	C220.958206,75.498749 222.731354,77.138802 224.416138,78.315186 
	C225.399292,79.001648 226.093307,80.718796 227.004013,80.785255 
	C230.867645,81.067207 234.763672,80.904915 238.824432,80.904915 
	C237.976791,73.078285 233.940170,68.717216 227.250778,67.486969 
	C222.754227,66.660004 217.960068,66.649559 213.398285,67.160240 
	C205.882126,68.001663 201.442657,72.709930 200.973434,79.272461 
	C200.483719,86.121262 203.382675,89.678871 211.555435,92.087593 
	C215.381577,93.215256 219.436279,93.792969 223.013428,95.434746 
	C224.556198,96.142815 226.033829,98.995216 225.879395,100.725143 
	C225.768478,101.967598 222.993973,103.712921 221.247391,103.927238 
	C216.375504,104.525009 213.556824,101.677376 212.630875,96.776733 
	C208.208786,97.010941 204.159988,97.225372 199.894333,97.451294 
	C200.380112,104.928177 203.772949,109.364891 210.565979,112.160873 
M197.238953,103.758766 
	C197.873947,101.999489 198.508957,100.240219 199.204544,98.313065 
	C185.345215,97.412476 181.446487,92.473480 185.203781,81.254700 
	C188.238678,81.115685 191.318832,80.974602 194.493286,80.829193 
	C194.493286,76.700333 194.493286,73.111809 194.493286,69.181129 
	C191.038681,69.000237 187.813110,68.831329 184.120590,68.637978 
	C184.120590,63.534672 184.120590,58.785408 184.120590,53.841805 
	C179.070160,53.841805 174.522507,53.841805 169.970749,53.841805 
	C169.970749,67.463974 169.440491,80.748367 170.159027,93.964867 
	C170.630188,102.630981 177.059006,108.464195 185.812393,110.541222 
	C193.397034,112.340927 194.281830,111.864288 197.238953,103.758766 
M130.130493,62.523033 
	C130.130493,61.127632 130.130493,59.732231 130.130493,57.714390 
	C132.566589,60.349453 134.454514,62.391563 137.113220,65.267403 
	C137.113220,60.256184 137.113220,56.949749 137.113220,53.643314 
	C136.723389,53.606186 136.333572,53.569061 135.943741,53.531933 
	C135.609039,55.284935 135.274353,57.037941 134.916092,58.914352 
	C132.953369,56.818699 131.132660,54.874664 129.311951,52.930630 
	C128.872635,53.224941 128.433319,53.519253 127.993996,53.813564 
	C127.993996,56.605793 127.906883,59.403576 128.084366,62.184471 
	C128.112198,62.620441 129.341629,62.979725 130.130493,62.523033 
M153.806625,62.001259 
	C155.663361,64.553383 157.690720,64.724159 161.028198,62.487717 
	C159.197617,62.102287 157.504547,61.745815 155.811493,61.389347 
	C155.848083,61.038738 155.884674,60.688133 155.921249,60.337528 
	C157.421509,59.860725 158.921753,59.383926 161.618347,58.526917 
	C158.865311,57.841721 157.414795,57.480705 155.964264,57.119690 
	C155.943542,56.799938 155.922821,56.480186 155.902100,56.160435 
	C157.482239,55.654243 159.062378,55.148048 160.642532,54.641853 
	C160.598175,54.401474 160.553833,54.161091 160.509476,53.920708 
	C158.349930,53.920708 156.190399,53.920708 153.796524,53.920708 
	C153.796524,56.532955 153.796524,58.844269 153.806625,62.001259 
M90.119637,64.012688 
	C91.048157,63.199780 91.976685,62.386875 92.241837,62.154739 
	C89.892563,61.230431 87.717590,60.374699 85.542618,59.518967 
	C87.116508,57.607101 88.690407,55.695240 90.134514,53.941032 
	C86.823547,52.848392 84.086571,54.088570 83.235764,57.570362 
	C82.407394,60.960293 84.689316,63.410774 90.119637,64.012688 
z"/>
<path fill="#E50107" opacity="1.000000" stroke="none" 
	d="
M150.574081,109.549896 
	C146.127899,109.779297 141.631210,110.530922 137.248199,110.107063 
	C131.658539,109.566536 127.705635,105.643532 127.378616,100.323196 
	C126.729607,89.764366 127.186760,79.137543 127.186760,68.260910 
	C131.595291,68.260910 136.337326,68.260910 141.707611,68.260910 
	C141.707611,75.713112 141.844193,82.998932 141.651398,90.276031 
	C141.551315,94.053505 142.384888,96.316559 146.756454,96.334229 
	C151.099045,96.351784 152.583923,94.528893 152.431137,90.261086 
	C152.170624,82.983887 152.359344,75.690605 152.359344,68.180603 
	C157.411438,68.180603 161.846878,68.180603 166.982651,68.180603 
	C166.982651,71.066132 166.982727,73.831673 166.982620,76.597206 
	C166.982285,86.924347 167.006241,97.251556 166.974869,107.578598 
	C166.941299,118.631241 161.858856,126.250023 151.066010,128.879196 
	C143.298233,130.771439 135.093765,130.871033 126.661751,131.817657 
	C126.661751,126.284447 126.661751,122.032715 126.661751,116.971313 
	C131.240189,116.971313 135.675781,117.167816 140.085876,116.916664 
	C144.596024,116.659813 149.202606,116.199692 151.576782,110.602364 
	C151.384842,109.877815 150.979462,109.713852 150.574081,109.549896 
z"/>
<path fill="#E60107" opacity="1.000000" stroke="none" 
	d="
M47.190636,99.992828 
	C47.190712,103.635574 47.190712,106.786705 47.190712,110.350716 
	C42.503864,110.350716 38.126919,110.350716 33.365692,110.350716 
	C33.365692,91.166603 33.365692,71.952477 33.365692,52.362572 
	C37.642166,52.362572 42.031815,52.362572 47.025341,52.362572 
	C47.025341,59.023823 47.025341,65.747971 47.025341,72.875458 
	C51.967133,72.875458 56.316849,72.875458 61.275864,72.875458 
	C61.275864,65.957687 61.275864,59.223129 61.275864,52.245987 
	C66.295013,52.245987 70.716484,52.245987 75.508194,52.245987 
	C75.508194,71.596848 75.508194,90.811066 75.508194,110.398254 
	C71.000145,110.398254 66.584557,110.398254 61.429234,110.398254 
	C61.429234,103.126999 61.429234,95.753983 61.429234,88.116989 
	C56.442616,88.116989 52.183537,88.116989 47.190563,88.116989 
	C47.190563,91.966125 47.190563,95.733673 47.190636,99.992828 
z"/>
<path fill="#E80107" opacity="1.000000" stroke="none" 
	d="
M112.214211,68.589325 
	C122.673935,75.044380 126.988258,84.985130 124.133263,95.496429 
	C121.275742,106.017029 112.227020,112.992599 101.372704,113.042305 
	C90.722519,113.091080 81.442421,106.383667 78.626152,96.167938 
	C76.067696,86.887405 78.117943,78.551453 85.399475,72.080139 
	C93.289406,65.068123 102.292206,64.120834 112.214211,68.589325 
M105.133392,81.164421 
	C97.743767,78.867882 91.534294,83.247284 92.607918,90.072426 
	C93.283485,94.367142 95.956535,96.984200 100.211411,97.478119 
	C104.218201,97.943245 107.391388,96.197372 109.061874,92.423279 
	C111.042023,87.949593 109.623322,84.353096 105.133392,81.164421 
z"/>
<path fill="#E60107" opacity="1.000000" stroke="none" 
	d="
M210.194092,112.043976 
	C203.772949,109.364891 200.380112,104.928177 199.894333,97.451294 
	C204.159988,97.225372 208.208786,97.010941 212.630875,96.776733 
	C213.556824,101.677376 216.375504,104.525009 221.247391,103.927238 
	C222.993973,103.712921 225.768478,101.967598 225.879395,100.725143 
	C226.033829,98.995216 224.556198,96.142815 223.013428,95.434746 
	C219.436279,93.792969 215.381577,93.215256 211.555435,92.087593 
	C203.382675,89.678871 200.483719,86.121262 200.973434,79.272461 
	C201.442657,72.709930 205.882126,68.001663 213.398285,67.160240 
	C217.960068,66.649559 222.754227,66.660004 227.250778,67.486969 
	C233.940170,68.717216 237.976791,73.078285 238.824432,80.904915 
	C234.763672,80.904915 230.867645,81.067207 227.004013,80.785255 
	C226.093307,80.718796 225.399292,79.001648 224.416138,78.315186 
	C222.731354,77.138802 220.958206,75.498749 219.107025,75.332085 
	C217.542847,75.191261 215.815552,76.862289 214.160446,77.731422 
	C215.301208,79.110291 216.178741,81.197525 217.631317,81.737305 
	C222.282242,83.465607 227.358612,84.133827 231.880096,86.106621 
	C239.412018,89.392899 242.087982,97.075172 238.874680,104.471779 
	C236.762817,109.333038 232.694275,112.294998 227.764999,112.741493 
	C222.096039,113.254997 216.304352,112.413719 210.194092,112.043976 
z"/>
<path fill="#E90107" opacity="1.000000" stroke="none" 
	d="
M197.115997,104.138580 
	C194.281830,111.864288 193.397034,112.340927 185.812393,110.541222 
	C177.059006,108.464195 170.630188,102.630981 170.159027,93.964867 
	C169.440491,80.748367 169.970749,67.463974 169.970749,53.841805 
	C174.522507,53.841805 179.070160,53.841805 184.120590,53.841805 
	C184.120590,58.785408 184.120590,63.534672 184.120590,68.637978 
	C187.813110,68.831329 191.038681,69.000237 194.493286,69.181129 
	C194.493286,73.111809 194.493286,76.700333 194.493286,80.829193 
	C191.318832,80.974602 188.238678,81.115685 185.203781,81.254700 
	C181.446487,92.473480 185.345215,97.412476 199.204544,98.313065 
	C198.508957,100.240219 197.873947,101.999489 197.115997,104.138580 
z"/>
<path fill="#CDCDCD" opacity="1.000000" stroke="none" 
	d="
M130.072968,62.948753 
	C129.341629,62.979725 128.112198,62.620441 128.084366,62.184471 
	C127.906883,59.403576 127.993996,56.605793 127.993996,53.813564 
	C128.433319,53.519253 128.872635,53.224941 129.311951,52.930630 
	C131.132660,54.874664 132.953369,56.818699 134.916092,58.914352 
	C135.274353,57.037941 135.609039,55.284935 135.943741,53.531933 
	C136.333572,53.569061 136.723389,53.606186 137.113220,53.643314 
	C137.113220,56.949749 137.113220,60.256184 137.113220,65.267403 
	C134.454514,62.391563 132.566589,60.349453 130.130493,57.714390 
	C130.130493,59.732231 130.130493,61.127632 130.072968,62.948753 
z"/>
<path fill="#DFDFDF" opacity="1.000000" stroke="none" 
	d="
M153.801575,61.578423 
	C153.796524,58.844269 153.796524,56.532955 153.796524,53.920708 
	C156.190399,53.920708 158.349930,53.920708 160.509476,53.920708 
	C160.553833,54.161091 160.598175,54.401474 160.642532,54.641853 
	C159.062378,55.148048 157.482239,55.654243 155.902100,56.160435 
	C155.922821,56.480186 155.943542,56.799938 155.964264,57.119690 
	C157.414795,57.480705 158.865311,57.841721 161.618347,58.526917 
	C158.921753,59.383926 157.421509,59.860725 155.921249,60.337528 
	C155.884674,60.688133 155.848083,61.038738 155.811493,61.389347 
	C157.504547,61.745815 159.197617,62.102287 161.028198,62.487717 
	C157.690720,64.724159 155.663361,64.553383 153.801575,61.578423 
z"/>
<path fill="#DEDEDE" opacity="1.000000" stroke="none" 
	d="
M89.722015,64.060715 
	C84.689316,63.410774 82.407394,60.960293 83.235764,57.570362 
	C84.086571,54.088570 86.823547,52.848392 90.134514,53.941032 
	C88.690407,55.695240 87.116508,57.607101 85.542618,59.518967 
	C87.717590,60.374699 89.892563,61.230431 92.241837,62.154739 
	C91.976685,62.386875 91.048157,63.199780 89.722015,64.060715 
z"/>
<path fill="#070606" opacity="1.000000" stroke="none" 
	d="
M150.808228,109.786285 
	C150.979462,109.713852 151.384842,109.877815 151.662262,110.256287 
	C151.370331,110.321419 151.206360,110.172050 150.808228,109.786285 
z"/>
<path fill="#0D0606" opacity="1.000000" stroke="none" 
	d="
M105.458832,81.362068 
	C109.623322,84.353096 111.042023,87.949593 109.061874,92.423279 
	C107.391388,96.197372 104.218201,97.943245 100.211411,97.478119 
	C95.956535,96.984200 93.283485,94.367142 92.607918,90.072426 
	C91.534294,83.247284 97.743767,78.867882 105.458832,81.362068 
z"/>
</svg>